<mxfile host="app.diagrams.net" modified="2024-03-11T08:40:05.239Z" agent="Mozilla/5.0 (Windows NT 10.0; Win64; x64; rv:109.0) Gecko/20100101 Firefox/115.0" version="23.1.1" etag="jYAwZ5URF_jJQXLhuvvF" type="github">
  <diagram name="第 1 页" id="Rtd26FSKoMeJe4r_Pqii">
    <mxGraphModel>
      <root>
        <mxCell id="0" />
        <mxCell id="1" parent="0" />
      </root>
    </mxGraphModel>
  </diagram>
</mxfile>
